<mxfile host="Electron" agent="Mozilla/5.0 (Windows NT 10.0; Win64; x64) AppleWebKit/537.36 (KHTML, like Gecko) draw.io/26.0.4 Chrome/128.0.6613.186 Electron/32.2.5 Safari/537.36" version="26.0.4">
  <diagram name="Page-1" id="jisUZIUTz7ii-qfC-p5y">
    <mxGraphModel dx="1035" dy="673" grid="1" gridSize="10" guides="1" tooltips="1" connect="1" arrows="1" fold="1" page="1" pageScale="1" pageWidth="850" pageHeight="1100" math="0" shadow="0">
      <root>
        <mxCell id="0" />
        <mxCell id="1" parent="0" />
        <mxCell id="4MlLHxpQCFnRz9ioGr0C-12" value="" style="rounded=0;whiteSpace=wrap;html=1;fillColor=none;fontColor=#333333;strokeColor=#666666;dashed=1;" parent="1" vertex="1">
          <mxGeometry x="220" y="590" width="160" height="160" as="geometry" />
        </mxCell>
        <mxCell id="4MlLHxpQCFnRz9ioGr0C-29" style="edgeStyle=orthogonalEdgeStyle;rounded=0;orthogonalLoop=1;jettySize=auto;html=1;exitX=0;exitY=0.5;exitDx=0;exitDy=0;entryX=1;entryY=0.5;entryDx=0;entryDy=0;" parent="1" source="4MlLHxpQCFnRz9ioGr0C-6" target="4MlLHxpQCFnRz9ioGr0C-18" edge="1">
          <mxGeometry relative="1" as="geometry" />
        </mxCell>
        <mxCell id="u17zXfElgi2l7u8nsmOT-8" style="edgeStyle=orthogonalEdgeStyle;rounded=0;orthogonalLoop=1;jettySize=auto;html=1;exitX=0.5;exitY=1;exitDx=0;exitDy=0;entryX=0.5;entryY=0;entryDx=0;entryDy=0;" edge="1" parent="1" source="4MlLHxpQCFnRz9ioGr0C-6" target="4MlLHxpQCFnRz9ioGr0C-12">
          <mxGeometry relative="1" as="geometry" />
        </mxCell>
        <mxCell id="4MlLHxpQCFnRz9ioGr0C-6" value="" style="rounded=0;whiteSpace=wrap;html=1;fillColor=none;strokeColor=#d79b00;dashed=1;" parent="1" vertex="1">
          <mxGeometry x="250" y="190" width="100" height="370" as="geometry" />
        </mxCell>
        <mxCell id="u17zXfElgi2l7u8nsmOT-6" style="edgeStyle=orthogonalEdgeStyle;rounded=0;orthogonalLoop=1;jettySize=auto;html=1;exitX=0.5;exitY=1;exitDx=0;exitDy=0;entryX=0.5;entryY=0;entryDx=0;entryDy=0;" edge="1" parent="1" source="4MlLHxpQCFnRz9ioGr0C-1" target="u17zXfElgi2l7u8nsmOT-4">
          <mxGeometry relative="1" as="geometry" />
        </mxCell>
        <mxCell id="4MlLHxpQCFnRz9ioGr0C-1" value="POST /zones" style="rounded=1;whiteSpace=wrap;html=1;arcSize=50;fillColor=#dae8fc;strokeColor=#6c8ebf;" parent="1" vertex="1">
          <mxGeometry x="240" y="30" width="120" height="40" as="geometry" />
        </mxCell>
        <mxCell id="4MlLHxpQCFnRz9ioGr0C-2" value="Validate&lt;div&gt;Venue&lt;/div&gt;" style="rhombus;whiteSpace=wrap;html=1;fillColor=#ffe6cc;strokeColor=#d79b00;" parent="1" vertex="1">
          <mxGeometry x="260" y="200" width="80" height="80" as="geometry" />
        </mxCell>
        <mxCell id="4MlLHxpQCFnRz9ioGr0C-3" value="Validate&lt;div&gt;Zone&lt;/div&gt;" style="rhombus;whiteSpace=wrap;html=1;fillColor=#ffe6cc;strokeColor=#d79b00;" parent="1" vertex="1">
          <mxGeometry x="260" y="290" width="80" height="80" as="geometry" />
        </mxCell>
        <mxCell id="4MlLHxpQCFnRz9ioGr0C-4" value="Validate&lt;div&gt;Amenity&lt;/div&gt;" style="rhombus;whiteSpace=wrap;html=1;fillColor=#ffe6cc;strokeColor=#d79b00;" parent="1" vertex="1">
          <mxGeometry x="260" y="380" width="80" height="80" as="geometry" />
        </mxCell>
        <mxCell id="4MlLHxpQCFnRz9ioGr0C-5" value="Validate&lt;div&gt;Images&lt;/div&gt;" style="rhombus;whiteSpace=wrap;html=1;fillColor=#ffe6cc;strokeColor=#d79b00;" parent="1" vertex="1">
          <mxGeometry x="260" y="470" width="80" height="80" as="geometry" />
        </mxCell>
        <mxCell id="4MlLHxpQCFnRz9ioGr0C-11" value="Create Zone" style="rounded=0;whiteSpace=wrap;html=1;fillColor=#f5f5f5;fontColor=#333333;strokeColor=#666666;" parent="1" vertex="1">
          <mxGeometry x="250" y="600" width="100" height="40" as="geometry" />
        </mxCell>
        <mxCell id="4MlLHxpQCFnRz9ioGr0C-13" value="Create Zone Amenity" style="rounded=0;whiteSpace=wrap;html=1;fillColor=#f5f5f5;fontColor=#333333;strokeColor=#666666;" parent="1" vertex="1">
          <mxGeometry x="230" y="650" width="140" height="40" as="geometry" />
        </mxCell>
        <mxCell id="4MlLHxpQCFnRz9ioGr0C-15" value="Create Images" style="rounded=0;whiteSpace=wrap;html=1;fillColor=#f5f5f5;fontColor=#333333;strokeColor=#666666;" parent="1" vertex="1">
          <mxGeometry x="250" y="700" width="100" height="40" as="geometry" />
        </mxCell>
        <mxCell id="4MlLHxpQCFnRz9ioGr0C-18" value="" style="rounded=0;whiteSpace=wrap;html=1;fillColor=none;strokeColor=#ae4132;dashed=1;" parent="1" vertex="1">
          <mxGeometry x="140" y="296" width="80" height="160" as="geometry" />
        </mxCell>
        <mxCell id="4MlLHxpQCFnRz9ioGr0C-19" value="404" style="rounded=0;whiteSpace=wrap;html=1;fillColor=#fad9d5;strokeColor=#ae4132;" parent="1" vertex="1">
          <mxGeometry x="150" y="306" width="60" height="40" as="geometry" />
        </mxCell>
        <mxCell id="4MlLHxpQCFnRz9ioGr0C-23" value="400" style="rounded=0;whiteSpace=wrap;html=1;fillColor=#fad9d5;strokeColor=#ae4132;" parent="1" vertex="1">
          <mxGeometry x="150" y="356" width="60" height="40" as="geometry" />
        </mxCell>
        <mxCell id="4MlLHxpQCFnRz9ioGr0C-24" value="401" style="rounded=0;whiteSpace=wrap;html=1;fillColor=#fad9d5;strokeColor=#ae4132;" parent="1" vertex="1">
          <mxGeometry x="150" y="406" width="60" height="40" as="geometry" />
        </mxCell>
        <mxCell id="u17zXfElgi2l7u8nsmOT-3" value="Get Venue By id" style="rounded=0;whiteSpace=wrap;html=1;fillColor=#f5f5f5;fontColor=#333333;strokeColor=#666666;" vertex="1" parent="1">
          <mxGeometry x="250" y="110" width="100" height="40" as="geometry" />
        </mxCell>
        <mxCell id="u17zXfElgi2l7u8nsmOT-5" style="edgeStyle=orthogonalEdgeStyle;rounded=0;orthogonalLoop=1;jettySize=auto;html=1;exitX=0.5;exitY=1;exitDx=0;exitDy=0;entryX=0.5;entryY=0;entryDx=0;entryDy=0;" edge="1" parent="1" source="u17zXfElgi2l7u8nsmOT-4" target="4MlLHxpQCFnRz9ioGr0C-6">
          <mxGeometry relative="1" as="geometry" />
        </mxCell>
        <mxCell id="u17zXfElgi2l7u8nsmOT-4" value="" style="rounded=0;whiteSpace=wrap;html=1;fillColor=none;fontColor=#333333;strokeColor=#666666;dashed=1;" vertex="1" parent="1">
          <mxGeometry x="240" y="100" width="120" height="60" as="geometry" />
        </mxCell>
      </root>
    </mxGraphModel>
  </diagram>
</mxfile>
